HIERARCHY
ROOT Hips
{
  OFFSET 36.5825 100.045 -334.741
  CHANNELS 6 Xposition Yposition Zposition Zrotation Xrotation Yrotation
  JOINT ToSpine
  {
    OFFSET -0.0105055 1.38907 -7.13956
    CHANNELS 3 Zrotation Xrotation Yrotation
    JOINT Spine
    {
      OFFSET 0.0105055 10 1
      CHANNELS 3 Zrotation Xrotation Yrotation
      JOINT Spine1
      {
        OFFSET 0 12 1.60637
        CHANNELS 3 Zrotation Xrotation Yrotation
        JOINT Neck
        {
          OFFSET 0 27 2.26658
          CHANNELS 3 Zrotation Xrotation Yrotation
          JOINT Head
          {
            OFFSET 0 9 2.12705
            CHANNELS 3 Zrotation Xrotation Yrotation
            End Site
            {
              OFFSET 0 11 2
            }
          }
        }
        JOINT LeftShoulder
        {
          OFFSET 8 19.6109 2.86452
          CHANNELS 3 Zrotation Xrotation Yrotation
          JOINT LeftArm
          {
            OFFSET 12 1 0.681055
            CHANNELS 3 Zrotation Xrotation Yrotation
            JOINT LeftForeArm
            {
              OFFSET 19 0 -1.52608
              CHANNELS 3 Zrotation Xrotation Yrotation
              JOINT LeftHand
              {
                OFFSET 23 0 0
                CHANNELS 3 Zrotation Xrotation Yrotation
                End Site
                {
                  OFFSET 10 0 0
                }
              }
            }
          }
        }
        JOINT RightShoulder
        {
          OFFSET -8 19.6109 2.86452
          CHANNELS 3 Zrotation Xrotation Yrotation
          JOINT RightArm
          {
            OFFSET -12 1 0.681055
            CHANNELS 3 Zrotation Xrotation Yrotation
            JOINT RightForeArm
            {
              OFFSET -19 0 -1.52608
              CHANNELS 3 Zrotation Xrotation Yrotation
              JOINT RightHand
              {
                OFFSET -23 0 0
                CHANNELS 3 Zrotation Xrotation Yrotation
                End Site
                {
                  OFFSET -10 0 0
                }
              }
            }
          }
        }
      }
    }
  }
  JOINT LeftUpLeg
  {
    OFFSET 9 -7.17245 0
    CHANNELS 3 Zrotation Xrotation Yrotation
    JOINT LeftLeg
    {
      OFFSET 0 -44.1113 0
      CHANNELS 3 Zrotation Xrotation Yrotation
      JOINT LeftFoot
      {
        OFFSET 0 -36.1829 0
        CHANNELS 3 Zrotation Xrotation Yrotation
        JOINT LeftToeBase
        {
          OFFSET 0 -4.84184 13
          CHANNELS 3 Zrotation Xrotation Yrotation
          End Site
          {
            OFFSET 0 1 6
          }
        }
      }
    }
  }
  JOINT RightUpLeg
  {
    OFFSET -9 -7.17245 0
    CHANNELS 3 Zrotation Xrotation Yrotation
    JOINT RightLeg
    {
      OFFSET 0 -44.0551 0
      CHANNELS 3 Zrotation Xrotation Yrotation
      JOINT RightFoot
      {
        OFFSET 0 -36.1469 0
        CHANNELS 3 Zrotation Xrotation Yrotation
        JOINT RightToeBase
        {
          OFFSET 0 -4.92256 13
          CHANNELS 3 Zrotation Xrotation Yrotation
          End Site
          {
            OFFSET 0 1 6
          }
        }
      }
    }
  }
}
MOTION
Frames:	17
Frame Time:	0.0333333
28.854 97.2664 8.17667 1.32305 -7.30822 44.06 0 0 0 -3.06154 -1.69781 -2.8014 7.84986 6.48306 -5.02656 7.36115 13.3211 -4.2536 -5.01168 -0.0699314 -0.178947 -28.2485 3.35608 -6.24826 -48.1452 19.427 -13.9174 -6.15101 -10.6168 4.63755 -10.5541 0.145322 -1.57328 26.6865 5.50272 13.1549 51.5426 7.18361 -8.26402 2.21552 -1.24075 9.75039 3.43972 0.112303 3.73885 8.37076 7.927 -3.07696 3.57991e-007 41.1259 -25.3848 14.6163 -11.6691 1.50165 1.69957 -12.0158 -6.57964 -0.664273 -8.16454 -2.44781 -0.347047 18.9595 22.0991 -4.86256 -2.40328 -0.102057 3.63195 -13.4841 -1.95925 
29.0803 97.5422 9.87292 1.20547 -7.93289 50.2659 0 0 0 -2.3807 -0.428094 -2.56184 7.48009 5.64491 -4.7471 9.61264 11.5214 -5.96784 -5.20961 -0.489592 -1.09214 -28.0041 3.43498 -6.54588 -47.9117 20.7932 -10.8168 -6.54619 -12.1422 4.65715 -11.3148 0.117721 -1.18831 27.1416 5.5382 13.0421 49.8401 7.33149 -7.7428 2.38016 -2.50562 10.5924 3.42645 0.108959 3.64162 10.426 2.65746 -3.3052 -1.7612e-007 49.9654 -23.1566 12.9945 -8.51332 0.97132 1.38566 -7.79069 -5.03347 -0.0923157 -5.20437 -5.09387 0.711458 17.0187 18.5689 -3.34005 -3.50618 -0.102257 3.23319 -11.8825 -2.52274 
29.2641 97.7028 11.3492 1.37125 -8.60557 56.6966 0 0 0 -1.2841 0.797522 -2.38948 6.84321 5.48433 -4.51523 11.6018 9.1584 -7.27147 -5.89049 -1.15264 -1.7026 -28.2035 3.44252 -6.51107 -47.3347 17.7425 -7.72897 -5.31503 -10.7265 4.64693 -11.286 0.147178 -1.48945 27.3087 5.67913 13.3767 47.8352 7.37406 -7.24849 2.19612 -2.5615 11.7637 2.73759 0.0833878 3.48875 11.8872 -2.76302 -3.20741 -4.93296e-007 57.7579 -17.7013 10.2255 -6.46015 0.578609 1.00818 -1.87538 -3.96934 0.873183 -2.23472 -6.32587 1.96148 14.6871 13.5313 -3.01524 -3.22315 -0.0848524 3.51474 -12.9947 -2.91368 
29.4875 97.7455 12.4831 1.57851 -9.04328 63.2029 0 0 0 -0.282387 2.10055 -2.04566 7.10629 5.07612 -4.06207 11.9534 7.46891 -8.26544 -4.48765 -2.40982 -3.06963 -29.0831 3.50716 -6.44991 -45.0088 16.8776 -5.79575 -4.31985 -12.9472 3.96862 -11.0737 0.170553 -1.75927 26.8728 5.67503 13.5773 45.6419 8.84029 -6.9394 2.6038 -3.215 11.5304 2.5091 0.0723347 3.30211 12.5102 -7.81023 -1.72512 -9.30359e-007 62.6195 -10.343 13.6493 -5.39667 0.646341 1.13125 -7.25734 -3.67355 1.86274 -0.103517 -6.97515 3.0835 13.0807 8.00822 -2.8752 -3.86808 -0.0971108 3.38935 -12.4408 -3.73048 
29.8829 97.8936 13.5462 2.15279 -9.12088 69.4731 0 0 0 0.821542 3.48557 -1.54846 6.48351 4.08615 -3.20076 13.0834 7.77945 -9.51602 -3.40606 -4.69126 -4.19734 -28.5353 3.5275 -6.66164 -43.7756 15.1962 -4.70421 -3.75559 -14.0916 1.40432 -10.6757 0.234502 -2.50944 27.1051 5.86113 14.0123 43.2366 10.1968 -7.55541 3.12968 -3.66309 10.4694 2.27207 0.0700968 3.53374 12.3678 -11.9801 -0.716228 1.60177e-007 64.6915 -7.64705 12.5306 -7.35773 0.808892 1.04414 -5.30384 -3.5813 3.11254 2.11681 -7.23448 2.80438 11.2744 1.1895 -2.08218 -5.77819 -0.105093 2.56287 -9.36305 -1.48242 
30.419 97.926 14.5108 2.50125 -8.5641 75.6507 0 0 0 1.73335 3.74117 -1.08867 5.58492 4.28089 -2.44534 14.0521 6.22857 -10.231 -2.94526 -5.0157 -4.81053 -28.1033 3.47396 -6.63082 -42.1505 15.3297 -5.14852 -3.89634 -17.4119 -1.38958 -9.82367 0.242498 -2.8212 27.07 5.96521 14.3368 40.5284 10.6434 -7.86865 3.21821 -3.3351 9.27194 3.17638 0.105187 3.79238 11.6432 -16.3469 0.333129 1.16485e-007 64.9222 -10.017 11.6279 -7.87132 0.802723 0.670325 -2.57488 -2.31037 3.82156 4.04651 -7.86031 3.08101 8.94884 -3.15119 -2.6438 -5.26512 -0.121582 3.07009 -11.0439 -4.22401 
31.2305 97.7481 15.4142 2.97684 -8.12981 81.7961 0 0 0 2.78057 4.15983 -0.66413 4.90796 4.05464 -1.70978 14.5551 4.42987 -10.5003 -2.49033 -3.36373 -5.11528 -27.8302 3.45893 -6.66588 -40.4545 15.7299 -6.19276 -3.98453 -16.8602 -3.98752 -9.32545 0.208642 -2.55772 26.3903 5.80339 14.2047 38.7995 11.1237 -8.35287 3.89717 -5.2595 7.45083 3.97705 0.138076 3.97522 11.0063 -19.6338 1.99024 7.98729e-007 63.1543 -15.3138 11.5151 -8.00318 0.808246 0.842585 -1.4634 -3.29656 4.71389 5.67647 -8.4502 3.07309 7.80264 -8.48944 -2.5383 -5.96907 -0.132361 3.3098 -12.0424 -4.61485 
32.2227 97.4913 16.0518 3.20295 -7.30435 87.6559 0 0 0 4.07876 3.96232 -0.608177 3.42055 4.0561 -1.24241 14.6008 4.40917 -10.7662 -1.76406 -4.05685 -5.52818 -27.5134 3.46583 -6.77889 -39.1007 15.8269 -6.60419 -4.04023 -15.9469 -6.73841 -9.69047 0.296535 -3.49714 25.6842 5.73718 14.3733 37.9941 11.8423 -8.98635 3.73654 -2.67656 6.46802 3.52458 0.0583458 1.89617 9.34874 -22.4231 3.11831 1.85658e-006 60.1619 -18.5985 9.09234 -10.3499 0.825177 0.977626 -0.259123 -4.05959 5.09507 6.39358 -9.17942 2.96769 8.3846 -13.973 -1.75414 -8.39973 -0.128822 2.91009 -10.5021 -3.16045 
33.3103 97.3823 16.5514 2.83138 -6.06316 92.9378 0 0 0 4.60907 3.97264 -0.467219 2.28559 2.97667 -0.837578 14.9409 3.98879 -10.6644 -2.85422 -3.41459 -5.12515 -28.1748 3.47766 -6.62103 -37.3114 17.0294 -7.3562 -4.10623 -15.3387 -7.97449 -9.47901 0.36685 -4.42254 24.7657 5.50626 14.144 37.2995 11.0192 -9.57418 3.63247 -2.35817 5.04647 3.35449 0.0554811 1.89456 6.74436 -24.8674 3.77579 1.63582e-006 55.2888 -18.0211 6.86367 -12.4039 0.746752 1.37187 2.32159 -5.90292 5.11809 6.84834 -9.63069 2.6392 8.32128 -18.2382 -0.222831 -9.92662 -0.0193514 2.60234 -9.14869 -3.59157 
34.5873 97.3222 16.8347 2.72009 -4.501 97.7772 0 0 0 5.33355 3.66195 -0.531613 0.159082 2.96698 -0.516156 14.1305 3.81414 -9.91231 -2.06889 -3.69475 -4.81958 -28.3485 3.41876 -6.40157 -37.0281 17.1851 -7.41606 -4.26756 -16.0895 -10.3544 -9.36126 0.276586 -3.37719 23.7751 5.35401 14.1944 36.931 9.70468 -10.0764 3.63166 -5.33307 5.3239 3.24645 0.0595948 2.10275 3.31177 -25.9678 4.02015 -7.88282e-007 49.2294 -16.4573 8.48442 -10.799 0.803394 1.27264 0.116115 -5.34111 4.99808 8.35011 -9.97801 2.02117 7.02648 -23.1462 0.993812 -11.1356 0.0968826 2.2862 -8.08472 -2.41181 
35.9291 97.3396 17.0576 2.32335 -3.0686 101.585 0 0 0 5.78962 2.94696 -0.160169 -1.65952 3.52543 0.17536 13.0995 3.57173 -9.28168 -1.05544 -3.69052 -4.74753 -28.7978 3.36067 -6.11196 -36.7 17.4578 -7.98915 -4.47495 -17.3799 -10.6465 -9.49844 0.34126 -4.10587 23.3032 5.28459 14.2288 36.3783 8.67346 -10.4092 3.26969 -5.53175 6.15413 3.09454 0.0307075 1.13679 0.275522 -26.0655 4.51519 -1.17948e-006 41.529 -14.3958 8.90089 -9.61932 0.750438 1.41987 -1.20724 -5.86586 5.09465 9.65532 -9.79984 1.04462 5.51577 -27.7861 1.42835 -11.1724 0.13971 2.2781 -8.25452 -1.47235 
37.473 97.3642 17.0186 1.86217 -1.40551 104.667 0 0 0 6.40517 2.15824 0.269396 -4.22458 4.24711 1.11559 12.7975 2.88626 -9.03981 -0.802428 -2.96105 -4.70293 -29.0397 3.33428 -5.97269 -37.8257 15.6747 -7.35902 -4.38091 -17.4642 -11.1934 -9.47847 0.367897 -4.4354 22.8091 5.15546 14.0756 36.2393 7.57704 -9.90311 3.23097 -7.16866 6.99966 2.09853 0.0405145 2.2118 -2.91535 -25.2371 5.44273 7.02185e-007 32.9441 -12.9616 9.13953 -5.60156 0.448071 1.33867 -1.37407 -5.49604 4.63807 11.2794 -9.98603 0.551859 4.00346 -30.2846 1.1364 -11.2024 0.111453 2.57379 -9.16432 -2.86736 
39.1327 97.1981 16.859 1.24742 -0.379487 106.373 0 0 0 7.7205 1.6112 1.05876 -6.9507 4.41508 2.45409 11.6248 2.56132 -8.57949 -0.270502 -2.88884 -4.7539 -29.3817 3.29101 -5.76205 -39.0944 14.8774 -5.92093 -4.06688 -16.3559 -11.8782 -9.10873 0.285102 -3.57799 22.4973 5.09908 14.0613 36.0303 6.72514 -9.13114 3.1537 -8.17709 8.54824 2.15673 0.0480824 2.554 -4.93423 -24.4952 6.65391 -0.723011 25.139 -11.6044 9.70572 -2.0745 0.176147 0.925662 -3.52984 -3.31916 4.34167 12.2223 -10.0106 0.0404999 3.60914 -32.1364 0.758551 -11.4921 0.0763305 2.7616 -9.85857 -3.34954 
40.9788 96.8419 16.5146 0.684001 0.258545 106.921 0 0 0 9.34072 0.425982 2.13309 -9.45618 5.48067 4.05975 10.9717 2.73396 -7.19473 -0.0722558 -3.90535 -3.61738 -30.5041 3.3308 -5.59101 -39.8254 14.4722 -4.09238 -4.43787 -17.8476 -12.4242 -8.68577 0.259798 -3.41994 22.1741 5.22544 14.6795 35.8279 6.21719 -7.38249 3.19883 -8.92111 9.15615 2.07214 0.0599987 3.31671 -6.02114 -23.3997 2.11644 -3.59126 17.7572 -4.86575 10.0992 -0.318662 0.0281573 0.471715 -5.17014 -0.680169 3.85076 12.8753 -10.3847 -0.24397 4.33755 -32.3237 1.77502 -12.4716 0.193966 2.89799 -10.4381 -3.26456 
43.0396 96.4496 16.0716 0.352276 0.882812 107.477 0 0 0 10.6633 -0.23875 2.79409 -11.9526 6.13148 5.26818 10.1597 2.19737 -6.12886 -0.00206148 -3.69567 -2.8675 -31.5578 3.23825 -5.09417 -40.7201 14.1155 -1.05106 -4.66384 -18.6051 -12.9302 -8.92505 0.308543 -3.95191 22.5834 5.37183 14.9352 35.3554 6.54385 -5.1782 2.31456 -5.204 11.1924 1.64709 0.0343451 2.38895 -7.01764 -22.4734 -0.761815 -4.26642 12.7784 -1.78543 9.00757 0.681051 -0.0536458 0.729756 -5.43241 -1.9312 3.58735 14.5527 -10.6405 -0.340561 3.36974 -32.6962 -0.075135 -12.1912 -0.00802375 3.48891 -12.841 -4.12531 
45.1187 95.9514 15.5595 -0.0107709 1.27981 107.725 0 0 0 11.7781 -1.00498 3.50098 -13.9345 6.76459 6.4129 9.33153 1.90924 -5.21995 0.422729 -3.62225 -2.32743 -32.1954 3.2064 -4.86869 -42.4218 13.5895 1.7803 -4.62956 -18.935 -12.2488 -9.59322 0.248982 -2.9665 22.92 5.60515 15.5168 35.1594 7.38405 -2.49682 2.53896 -5.77943 11.8518 2.42593 0.0775224 3.66007 -7.80602 -22.5326 -1.47573 -3.82117 11.6455 -0.210203 9.01515 -0.752048 0.0592884 1.32211 -4.06989 -5.15648 3.40452 16.0444 -10.9248 -0.393916 2.68916 -33.2568 -0.860461 -12.592 -0.0949364 3.48729 -12.8302 -4.21555 
47.3647 95.6492 14.9874 -0.398797 1.94148 107.65 0 0 0 11.8263 -1.86018 4.21714 -15.2988 7.62803 7.4936 8.56216 1.21405 -4.25739 0.768836 -3.20362 -1.72571 -32.6529 3.11209 -4.52723 -44.4572 12.0335 4.53945 -4.18335 -18.1109 -10.2709 -9.19396 0.173153 -2.15326 23.3938 5.875 16.1204 35.0062 8.08375 0.171487 2.09304 -4.65457 13.6733 2.08534 0.0665634 3.65608 -8.69382 -23.0542 -1.77271 -3.67634 13.8191 1.69469 8.4345 -1.45752 0.107481 0.880134 -0.630627 -3.5919 2.88482 18.1814 -11.1896 -0.371982 0.850695 -32.574 -2.62359 -12.1977 -0.280376 3.69896 -13.7194 -5.83501 
